<svg id="Layer_1" data-name="Layer 1" xmlns="http://www.w3.org/2000/svg" viewBox="0 0 979 318"><defs><style>.cls-1{fill:#93581c;}</style></defs><path class="cls-1" d="M981.8,201.84c.61-2.66,2.49-4.79,0-6.49,0,2.66-3.31,2.45-5.1,3.19.36-3.83-4.63-2.66-4.38-6.49,3.92-3,2.34-8.84-.86-11.5,1.22-.06,2.4-1,3.36-2.56h2.44a7.55,7.55,0,0,0-3.41,0l.31-.74a15.71,15.71,0,0,0-8-4.9h-6.22a5.69,5.69,0,0,0-.66-1.06,10.05,10.05,0,0,0,3.46,0h0a3.25,3.25,0,0,0-1.58,0,5.06,5.06,0,0,1-2.19,0h.77c.4,0,1.73,0,.56-.64h6.93a2.49,2.49,0,0,0-1.48,0,8.39,8.39,0,0,1-2.55,0h3.67a4.17,4.17,0,0,1-1.32,0h15.94a3.09,3.09,0,0,0-1.48,0H967.18c1.37-3,7.59-.85,8.55-4.26-.61-2.13-4-1.6-5.09-3.19-1.17-5.65,7.64-3.09,9.27-3.73a7.19,7.19,0,0,1-1.58-2.56h0a3.82,3.82,0,0,0,1.43,0,3.41,3.41,0,0,0-1.68,0,4.57,4.57,0,0,1,0-.74h1.27a6.27,6.27,0,0,0,3.16,0c.87,0,.51-1-.76-1.07h-3.67c4.38-.95,10.19-.74,11.92-4.36a19.51,19.51,0,0,0-12.38-.75,4.13,4.13,0,0,1-.56-3.19c-4.59,2-8.51-1.06-12.53,3a3,3,0,0,0-2-1.7h-.87l-4.12-1.17a11.81,11.81,0,0,1,.51-2h7.69c-1.17,0-3.57,0-4.43-.63h-.61a6.57,6.57,0,0,1-2.5,0h.61c1.53,0,1.58,0-.36-.54l.31-1h2.29s0-.74-2.14-.85l.31-1.27h.1a5.65,5.65,0,0,1,2.09,0h2.8l-.41-.64h0c1.38,0,1.63,0,0-.64h.05a4.46,4.46,0,0,0,2.35,0,4.63,4.63,0,0,0-2.45,0h7a8.88,8.88,0,0,0,2.91,0,6.76,6.76,0,0,1-1.33,1.38c1.19.55,2.43-.17,3.31-1.91a1.81,1.81,0,0,0-1.37,0s-.31,0-1-.64l-7.54-.54a31.41,31.41,0,0,1-8.51-.74h-5.91a3,3,0,0,0-2.14,0,10.59,10.59,0,0,0-2.34-.64h0a3.51,3.51,0,0,0-1.58,0l-5.86-.53h-.56l.61-1a36.07,36.07,0,0,1,7.59.53l4.74.85a5.82,5.82,0,0,0,2,0h4.38a1.57,1.57,0,0,0,1.37,0H965c-1.69,0-3.83-.53-5.76-.74l-9.38-.85h-4.17a.41.41,0,0,0,.51,0h0a.72.72,0,0,0-1,0,3,3,0,0,1-1.33,0h-1.48c-.4,0-.81,0-.86.53h-1.22a15.76,15.76,0,0,0,1-7.45,11,11,0,0,1-2.9.85s.66-1,0-1.39c0,0-.61,1.07-.46,1.5a11.47,11.47,0,0,0-6.37,1.49h0c-2.81-1.16-5.73-.1-8.2,3h-8.51c-1.7-2.08-3.8-2.08-5.5,0h-6.83a101.32,101.32,0,0,1-15-.75h-2l-20.38-.64a2.09,2.09,0,0,1-.72-1.7,11.09,11.09,0,0,0,6.83-1.38c-.66,0-1.27,0-1.32-1.5a7.62,7.62,0,0,0,6.11-1.91,28.71,28.71,0,0,1-10.55-2.88h1a4.74,4.74,0,0,0,2.35-.85h0a.9.9,0,0,0-.87,0,3.41,3.41,0,0,1-1.68,0h-1.63a21,21,0,0,1-8,0h-6.32a4.12,4.12,0,0,0,1-2h0l2.85-2.77c.67,0,.77-1.28.82-2.34h0c1.58-5,1.48-5.11-1.33-5.32a30.61,30.61,0,0,1-8.76,0h-8.61v-1.17l7.19-1.92c-.46-1.07-.77-1.49-1.13-1.49H798.74a3.45,3.45,0,0,0-3.46,1,75.74,75.74,0,0,1,21,2h.61c1.38-1.6,2.75-2.45,3.93.53,1.29-1.56,2.79-2.19,4.28-1.81a.8.8,0,0,1,.71,0c1.84,2.08,4.06,2.08,5.91,0,.86-.74,2.85-.74,2.19,3.41H784.68a2.62,2.62,0,0,0-2.7,1.28h-.56c-.41,0-.81-1.17-1.22-1.17H766.7c-.41,0-.77.74-1.17,1.17H714l1.22-12.14c.36-.05.64-.64.66-1.38h0c1.23-2.88,1.12-3-1.07-3.09a29.91,29.91,0,0,1-6.82,0h-6.73v-.64l5.61-1.06a1.55,1.55,0,0,0-.87-1H674.89L682,89.63c-.4-1.17-.76-1.6-1.07-1.6H663.33c-8.66.54-17.33,0-25.94,0a3.49,3.49,0,0,0-3.46,1,71.91,71.91,0,0,1,21,2.13.84.84,0,0,0,.66,0c1.38-1.7,2.7-2.55,3.93,0,1.29-1.57,2.79-2.21,4.28-1.81h.71c1.82,2.12,4,2.12,5.86,0,.71-.64,2.24-.64,2.34,1.6h-.81a3.47,3.47,0,0,0-2.7.64h3.51v1.06H623.49a2.57,2.57,0,0,0-2.7,1.28h-1.43a5.18,5.18,0,0,0-1.17-1.17h-13.5a2.8,2.8,0,0,0-1.23,1.06h-3.82l1.89-1.06h0c.66,0,1.37,1.17,1.78,0s0-1,0-1.28l2.09-1h-2.9c0-1,0-2.23-1.18-1.38a2.33,2.33,0,0,0,1.07,1.38H583.85c-.51-1.28-1-1.28-1.43,0a3.61,3.61,0,0,1-2.19-1.28c-.76-3-.81-3-2.14,0l-1.47,1.28c0-3.83-1.48-5.11-3-6.07s-1.48,1.92-2.34,2.77c.81,1.6,1.93,1.71,2.44,3.3h-4.12a3.38,3.38,0,0,0-5.1,0h0a178.29,178.29,0,0,1-18.44-1.17h-7.9a52.2,52.2,0,0,0-14.47-2.13h-6.11c-2.6,0-5.86-.64-8.82-1h-.35l-10.19-1.06a3.42,3.42,0,0,0,0-.64l-.31.64h-2.9a1.27,1.27,0,0,0,.46-.64c.3-.64.91-1.17.3-1.92-.33-.53-.79-.53-1.12,0-.3.75-.66,1.28-1.22,0a3,3,0,0,0-3,0c-1.12,1-1.42,0-1.57-1.49s-.67,0-.82,1a9.39,9.39,0,0,0-.36,1.6h-.71c-2-1.07-3-1.07-3.46,0h-2.76l-11.15-.75h0c-4.79,0-10.19-.53-15-.74h-4.43a5.13,5.13,0,0,0,1-2.24c-1.64-1.27-1.43.64-1.43,2.24l-25.07-.53h-8.1V81c.26-1.17,0-1.28,0-.85L416,81.54h-2.34c.75-.72,1.14-2.49.91-4.15-.3,1.38-1.53,1.91-1.17,4.36h-.92a10.1,10.1,0,0,0-1.78-4.15,3,3,0,0,0,.36-.85c.35-1.17,1.17-1.92.35-3.19s-1.07,0-1.37.85-.87,2.23-1.58,0-2.45-1.39-3.77,0-1.89,0-2-2.66a4.65,4.65,0,0,0-1,1.7c-.15.74-.91,4.58.41,5.53s2.85,2.35,3.11-2.23c.1-.79.49-1.26.87-1a1.37,1.37,0,0,1,.5,1c0,.85.31,2.34.51,1.81s1.63-1.07,2.55-1.17a15.34,15.34,0,0,1,0,3.83H403.8a.75.75,0,0,0-1.37,0h-1a7.79,7.79,0,0,0-1.17-3.73h0l.3-2.13a3.24,3.24,0,0,0-3.72-1,3,3,0,0,0-1.58-.75c-.61,1.92,0,2.56.67,3.2q0,1.38,0,2.76a3.7,3.7,0,0,0-3.77,1h0c1.68-4.36,1.63-4.47-.82-7.13-.76,1.17,1.78,4.58-1,4.47-.46,0-.35,1.28,0,2v.64H379.19a6.27,6.27,0,0,1-1.73,0h-44a2.34,2.34,0,0,0-1.48,0H288.71l-.61-1.91a6.11,6.11,0,0,0-1.27,1.91h-.1v.53h-8.16a4.48,4.48,0,0,0-2.85,0,8,8,0,0,0,3.16,0H293a3.51,3.51,0,0,0,1.12,0h8.41a1.52,1.52,0,0,0,1.07,0h-1.48a10.16,10.16,0,0,1,4.59,0,9.73,9.73,0,0,0,2.95,0h5.61a5.38,5.38,0,0,0,4.07-.64H330a2.75,2.75,0,0,0-1.07,0H330a28.46,28.46,0,0,0,7.49,0,8,8,0,0,0,4.84.54,36.32,36.32,0,0,1,7.8,0,24.7,24.7,0,0,0,5.7,0c1.63,0,2.24,0,1.94-.64a3.58,3.58,0,0,1,1.78,0h31.54v.53h-3.88c-4.12,0-8.35-.64-13,0h-1.78a2.74,2.74,0,0,0,2.14,0h21.5a8,8,0,0,1,.56,1.28,4.46,4.46,0,0,0-2.75,0h-8.56a6.11,6.11,0,0,0-2.09,0h7a15.7,15.7,0,0,0,4.54,0h2.24a1.75,1.75,0,0,0,.61.85l-23.84,2.24a40.64,40.64,0,0,0-19.92-.64h0a2.25,2.25,0,0,0-2.65-1.07H319.94a6.08,6.08,0,0,0-2.75,0H296.1c-5.76,0-11.87-.74-17.88,0h-18.5a9.8,9.8,0,0,0-2.65,0h-4.58a.68.68,0,0,0-.87,0H231.86a1.67,1.67,0,0,0-.92-1,31.14,31.14,0,0,0-9.38,1H203.78a5.32,5.32,0,0,1-2.8,0h36.94c2.19,1.6,3.16,1.49,3.62-.74h11.15a2.12,2.12,0,0,0,1.53,0,38.58,38.58,0,0,0,7.64-.54h-11.1a4.07,4.07,0,0,0,.4-1.8c-.86-2.56-1.22-6.18-3.46-6.61,0,3,.71,6.18-1.43,7.78,1.33,1.27,2.86-2,4.28,0h-8.86q.06-1.55,0-3.09c-.92-1.28-1.48,0-2.09,1h-.31a8,8,0,0,0-1.17-4.47c-.71-.54-1.63,0-2.14-1.28-.78-1.59-1.81-2.5-2.9-2.56-1.22,3.73,2.14,2.77,1.73,6-1.53,0-3.16-1.17-5.09,1.28,1.83-4.68,1.83-4.68-.67-7.45-.76,1.17,1.74,4.58-1,4.47-.51,0-.41,1.28,0,2s.86,2.45,1.47,3.94c2-3.08,3.88-3.19,5.4,1.07H179.79l-28.38,1.06h-2.75c-13.5.75-27.1,1.49-40,2.56-5.85,0-11.92,1-17.32,1.59h0A80.8,80.8,0,0,0,77,89.31a8.5,8.5,0,0,0-3.42.85H72.34a39.63,39.63,0,0,0-12.89,1.07h0c-1.68,0-2.39.64-3.72,1A23.08,23.08,0,0,0,52,93.25c-.91.43-3.36.85-2.44,1.49h0c-4.49,0-6.17,1.28-4.28,2.13h-2.6a6,6,0,0,1,1.58,0,.94.94,0,0,1,.66,0s1.89.64,1.38,1.06-.26,0,.76.86c-.41,0-1.58,0,0,.53h0c3.72,0,3.82.85.66,1.28-1.93,0-1.32.63,0,1h0c.26,0,0,.64,1.79.86H50c-3.72,0-4.59.85-3.16,1.59h0a10.74,10.74,0,0,0,2.65.75h0s1.68,0,0,.64-2.6.64-.77,1.17h2c1.43,0,1.12,0-1,.53H47.83a6.18,6.18,0,0,0-2.64,0h1.68c1.63,0,1.53,0,0,.64-3.37,0-3.37,0,0,1h.56c-.77,0-2.09.85-.92,1.38l.71.53c.72.54,2,.64.82,1.07a3.59,3.59,0,0,0-1.53,0c-.92,0-1.94.64,0,1s1.73.64,0,.85H45.24a3.55,3.55,0,0,0,1.83,0h0c3.41,0,3.67,0,2.09,1H47.53a10.46,10.46,0,0,0-3.06,0h4.69a5.87,5.87,0,0,0,3.92.74h0c1.12,0,.92,0,1.73.64s.72,0,.51,0h-.4c-1.89,1-.72,2.13-.72,4.05,1,0,.72-1.6.67-2.77h0a5.13,5.13,0,0,1,0-1,2,2,0,0,0,1.22,0c2.8,0,2.39.64,1.48,1.06a2.41,2.41,0,0,1-1.79,0h0c-1.12,0-1.07,0,0,.75s0,.74,1.58,1h1.07c-3.92,0-5.09,1-3.16,1.81h2.14s2.24,0,.41.53-2.7.64-1.73,1.06h-.77a.73.73,0,0,0-1,0H55a6.66,6.66,0,0,0,2.09,0h1.78a9.72,9.72,0,0,1-2.85,0h-.82a57.62,57.62,0,0,0-2.34,8.31h1.63c1.58,0,1.73,0,.41.64H54c-2.35,0-2.35,0,.41.85h.56a3.25,3.25,0,0,0-1.58,0,5.68,5.68,0,0,1,.51,1.38h0a6.35,6.35,0,0,1,0,2.13H52.32c-1.38,1.28.25,1.28,1.22,1.17l-.41.64h0a1.78,1.78,0,0,1-.91.64c-3,.45-6-1-8.66-4.26-5.1,1.39-.67,9.58,0,13.2-2.45,1.07-6.07,1-7.09,3.2-4-3.94-7.94-1-12.53-3a4.14,4.14,0,0,1-.56,3.19,18.73,18.73,0,0,0-12.38.75c1.89,3.51,7.54,3.3,11.92,4.25a6.55,6.55,0,0,1-1.78,5c1.63.64,10.44-1.81,9.27,3.72-1.12,1.6-4.48,1.07-5.09,3.2,1,3.3,7.49,1.06,8.66,4.26,3.82-1.39,7.69,0,8.61,3.08,0,.86-1.12,1-1.28,1.92-4.84-1.49-9.79.06-14.21,4.47l.36,1h-1c1,1.6,2.14,2.49,3.36,2.55-3.21,2.67-4.79,8.41-.87,11.29,0,3.73-4.73,2.55-4.38,6.28-2-.74-5.09,0-5.09-3-2.24,1.6-.41,3.73,0,6.28-1.35,1.81-3,2.28-4.54,1.28,0,2-1.07,2.66-.45,5,3.21-.64,3.26,1.92,6,1.81h1.27c-.36.53,5.55-1.38,5.09-3.19s2.45.64,1.18-2.56c1.37.64,2.34,3.3,2.65,0,1.17,1.28,2.29,1.07,1.42,3.09,3.77-1.92,6.17,1.81,9.12,1.38l.71,2.56h0c0,1.7.26,3.19,1.18,3.73l4,4.47h0c.45,2.74,1.79,4.41,3.16,3.94h0l4,2-4,1.81h0c-.92-.26-1.82.72-2.24,2.45h0L45.19,236c-.53.21-.91,1.21-.87,2.34h0c-1.53,5-1.48,5.11,1.32,5.32h5.25a5.74,5.74,0,0,1-3.87.75v.63a2,2,0,0,0,0,1.07,6.64,6.64,0,0,0,5.09,1.7,3,3,0,0,0,1.07-1.49c0,1.07-.81,1.17-1,2.13s-2.4,1-2,3.51c.14.83.5,1.42.92,1.49H40.91c-3.21,1.92-3.21,1.92-3.06,8.1-.05,1.27-.05,2.55,0,3.83a1.21,1.21,0,0,0,.51,1c-.92,3.3.81,2.55,1.78,2.76h1.73a6.8,6.8,0,0,0-4,.86,4,4,0,0,0,.61,4.68H52.93a2.74,2.74,0,0,0,1.83,0h1c6.78-.53,13.61-.85,20.38-1.06h2.19L75.24,275h0c-.91-.31-1.81.63-2.24,2.34l-2,2h-.46a49.69,49.69,0,0,1-13.1-1.91.88.88,0,0,0-1,0H57a67,67,0,0,0,13,1.91,3.57,3.57,0,0,0-.61,2.13h0c-.34,1.1-.65,2.24-.92,3.41H66.89v1.17h1.27a5,5,0,0,0,2.19.75,30.31,30.31,0,0,1,8.82,0h4.28l-1.79.74H78.05c-8.36,0-16.71,0-25.07-.53-.46,0-1,.53-1.53,2.13l10.19,2.66v1.49H49.26a40.8,40.8,0,0,1-12.48,0c-4,0-4.13,0-1.89,7.45h0c-.06,1.54.45,2.93,1.18,3.2l4,3.83h0c.59,2.45,1.86,3.83,3.16,3.41h0a101,101,0,0,1,16.66,8.3h1l.46.75-2.09.85h0c-.93-.33-1.85.67-2.24,2.45h0l-2.81,2.76c-.51.21-.87,1.15-.86,2.24h0c-1.53,5-1.43,5.22,1.32,5.32a10.14,10.14,0,0,0,3.11,0L55.12,335h0c-.65-.21-1.31.22-1.78,1.18h0a5.71,5.71,0,0,0-.46,1.17h0l-2.8,2.76c-.51.21-.88,1.15-.87,2.24h0c-1.53,4.9-1.48,5.11,1.32,5.32a31,31,0,0,1,8.82,0h8.56v1.07l-7.13,1.91c.4,1.07.76,1.6,1.07,1.49H78.71l-4,1.81h0c-.92-.33-1.84.68-2.24,2.45h0l-2.8,2.77c-.53.21-.9,1.22-.87,2.34h0c-1.52,4.9-1.47,5.11,1.33,5.33a30.25,30.25,0,0,1,8.81,0h8.56v1.06l-7.13,1.92c.41,1.17.76,1.59,1.07,1.49H125a3.78,3.78,0,0,0,3.46-1,72.28,72.28,0,0,1-21-2.13.84.84,0,0,0-.66,0c-1.37,1.7-2.7,2.56-3.87,0-1.3,1.65-2.83,2.33-4.33,1.92h-.66c-1.85-2.09-4.07-2.09-5.91,0-.87.85-2.91.85-2.25-3.3h49.32a2.54,2.54,0,0,0,2.65-1.28h1.43a2,2,0,0,0,1.42-.75h.82v2.24c0,.52.25.92.51,1a4.17,4.17,0,0,0,0,2.55h.1a3.59,3.59,0,0,0,1.53,0h1.73a6.63,6.63,0,0,0-3.92,1,3.85,3.85,0,0,0,0,3.94h-2.8a13.23,13.23,0,0,0,2.95,0l.46.64h6.62l1.94,1.17a1.51,1.51,0,0,1,.41-1.28h1.27c0,1.07-1.89,1.92-2.9,2.45l-.36,1-.31.85a10.78,10.78,0,0,1,5.51,1.7c0-3.08,1,0,4.33-1.17v-1h.91c.92-.85.51-1.91-1.22-1.81,0-.95.71-1.17.66-2.23h.66c9.68-.75,19.42-1.28,29.15-1.39h11v2.24c3.08,1.65,6.33,1.2,9.27-1.28,2.3,3.3,8.41,2.77,8.05-1.17h12.38a7.31,7.31,0,0,0,7.08,0c.08.67.34,1.17.67,1.28s.71,0,.76-1,0,0,0-.53H249v.53l.92.75-.3,1.06a20.43,20.43,0,0,0,5.55.53l-.31-1.38.92-1V374h3.26l-1.42.53.25,1.07-.92.63c-.51,1.81,1.68,1.18,1.17,3,1.74-1.18,5.71,0,6.22-2.45,0,.85.87,1.59,3.06,1.81-1.58-2.56,1.58-2,1.93-4.16a1.36,1.36,0,0,1-1.27,0,245.23,245.23,0,0,1,26.54,1h13.3a4.38,4.38,0,0,0,.76,1.17H326l11.71-.74h11.26a7.39,7.39,0,0,0,2,1.81c.92,0,1.27-.75,1.73-1.81h2.09c0,.21,0,.43,0,.64h0v1a3.51,3.51,0,0,0,1.68-.75,19.62,19.62,0,0,0,7.85-.74h5.6s-.41,0-.41.85,1.48-.64,2.91-.85H373a1.48,1.48,0,0,1,1.07.85l.76-.85h30.57a.66.66,0,0,0,.61,0,18.93,18.93,0,0,0,5.1,0h3.46a1.75,1.75,0,0,0,.72,0,10.37,10.37,0,0,0,2.49,0h24.81a8,8,0,0,0,2.55-.43h29.25a11.23,11.23,0,0,0-1.28,1.06l1.07,3.3c.77-.95,1.78-2.12,1.17-3.93h45.5a16.64,16.64,0,0,0-.82,5.53c.92,1.28,1.53,0,2.09-1h.31a7.64,7.64,0,0,0,1.12,4.47,2,2,0,0,1,2.19,1.28c.77,1.56,1.78,2.47,2.85,2.56,1.23-3.73-2.14-2.77-1.73-6,1.53,0,3.16,1.17,5.1-1.28-1.84,4.68-1.84,4.68.66,7.45.81-1.17-1.73-4.58,1-4.47.46,0,.35-1.28,0-2.13s-.92-2.34-1.53-3.83c-1.34,2.69-3.47,2.6-4.76-.2-.12-.27-.23-.56-.34-.87-.66-1.81-1.93-1-2.9-1.7h52.93a6.06,6.06,0,0,0,4.59-1,2.93,2.93,0,0,1,3.11-.74h0a1,1,0,0,0,1.37,0,11.06,11.06,0,0,1,3.72,0,18.93,18.93,0,0,0,5.1,0c.4,0,.81,0,.81-.75h0a26.13,26.13,0,0,0,5.76-.53h1.58a2.21,2.21,0,0,1,.81,0,1.27,1.27,0,0,0,1.33,0H626l-.61.85,1.89,1.92c1.12-2.35,5.09,1.06,4.58,0s-.51-.86-.61-1.39h2.4l.91-.85h5.91a.56.56,0,0,0,.92,0h2.45a28.73,28.73,0,0,0,10.69,1.49,58.48,58.48,0,0,1,17.17-1.17,9.5,9.5,0,0,0,3,0h36.78a8.7,8.7,0,0,1,3.67.53,2.35,2.35,0,0,1,0-.53h17.93a1.36,1.36,0,0,1-1.52,0c.35,2.24,3.51,1.6,1.93,4.15,2.19,0,2.91-.85,3.06-1.7.51,2.34,4.48,1.28,6.21,2.45-.5-1.92,1.63-1.17,1.18-3.09l-.92-.64.25-1.17h1.84v.64l.92,1-.31,1.38a20.63,20.63,0,0,0,5.55,0l-.46-1.17.92-.75a2.22,2.22,0,0,0,0-.63h8.1a8.45,8.45,0,0,0,8,0h12.64c-.46,4,5.75,4.68,8.05,1.27,2.94,2.54,6.19,3,9.27,1.28V374.2a.72.72,0,0,1-.77,0h6.47a.56.56,0,0,0,.92,0h2.14a30.86,30.86,0,0,0,10.45,1.28,51.78,51.78,0,0,1,17.16-1.17c1.78.58,3.59-.22,5.1-2.24a63.58,63.58,0,0,1,12.38-6.38h0c.92.29,1.83-.7,2.24-2.45h5.1a210.72,210.72,0,0,0,24.5.64,5.44,5.44,0,0,0,.82-6.5,11,11,0,0,0-5.66-1.28h2.55c1.32,0,3.77.75,2.5-3.83h.3a123.7,123.7,0,0,1,26.95,3.3c.31,0,.51,2.24,1.22.64-1.52-1,3-1.06,2.45-3-2.45.74-1.63-1.7-2.5-2.45-1.63,1.49-4.17,0-5.09,0s-.51,1.17-1.22,1.17c-1.48,0-4.08,0-5.56-.64A77.69,77.69,0,0,1,885.76,349l3-1.28h0c1.31.44,2.6-.93,3.21-3.4l4-3.94c.72-.39,1.22-1.75,1.22-3.3h0c.54-1.31,1-2.7,1.48-4.16a2.1,2.1,0,0,0,1.63,0c0,1-2.6,1.92,0,1.81,1.33,0,1.33-.85.61-1.7,1.48,0,1.33-1.17,3.11-.64,0-1.59-1.07-1.17,0-2.34-1.12-1.6-6,0-6.22-1.92,1.89-3,7.44,0,9.84-2.34,0,1.07-.56,3,1.27,2.45,1.84-3,1.94-5.64,4.84-6s.71,2,2.5,0a13.86,13.86,0,0,1,3-.64h16.56c1.6.14,3.17-.92,4.43-3h1a103.28,103.28,0,0,1,16.66-8.52h0c1.3.46,2.59-.92,3.16-3.4h0l4-3.94c.72-.32,1.22-1.67,1.18-3.2h0c2.24-7.13,2.09-7.34-1.89-7.66a40.15,40.15,0,0,1-12.38,0H941.45a5.73,5.73,0,0,1,2.85,0,15.26,15.26,0,0,0,3.31,0v.64c1.68,0,1.17-1.28,1.84-1.81h-1.84v-.43h-1.07a6.07,6.07,0,0,1-3.11,0h1.74c.4,0,1.68,0,.51-.64H951a2.67,2.67,0,0,0,1.63,0h-1.47a5.55,5.55,0,0,1-2.5,0h3.62a4.24,4.24,0,0,1-1.33,0H963.3a3.73,3.73,0,0,0,2.86,0H949.34c-.45-1.06-.86-1.6-1.27-1.49H932.23a6.46,6.46,0,0,0-3.21,0h22.51a5.74,5.74,0,0,0,1.94,0H938.14a11.72,11.72,0,0,0,3.92,0h0a13.27,13.27,0,0,0-3.67,0H936a8.89,8.89,0,0,0,3,0h1.27a4.86,4.86,0,0,0-1.32,0c-.71,0-3.41,0-1.63-.74h6.37a8.72,8.72,0,0,0,2.6,0H945a6.43,6.43,0,0,0,3.93,0h8.61a2.67,2.67,0,0,0,1.63,0h-4.74a10.8,10.8,0,0,1-3.11,0h4.23a4.92,4.92,0,0,0-2.29,0h2c-.25,0-.3-.75-3.36-.75H949.5a2.67,2.67,0,0,0,1.63,0h4.07c-.61,0-2.65,0-1.78-.53a5.52,5.52,0,0,1,2.29,0h2c1.83,0,1.27-.64-2.29-.75h9.27a7.65,7.65,0,0,0,3.16,0c.86,0,.51-1-.71-1.06h-7.24c-4.79,0-8.51-.85-13.3-1.07h0a15.22,15.22,0,0,0-3.31-.63,7.07,7.07,0,0,0-2.34,0h2.14v.74h1.22v-.85h2.09a2.68,2.68,0,0,0,1.68,0H950a4,4,0,0,1,2.44.64,2.49,2.49,0,0,0,1.48,0,10.48,10.48,0,0,0,3.26,0,2.48,2.48,0,0,0-1.89,0H944.4c-2.24,0-5.09-.64-7.84-.85h7.28a4.47,4.47,0,0,0,1.63,0H936.4c-.61-.75-2-1.07-2.34,0h-2.85a7.1,7.1,0,0,0,2.6,0h-5.46a10.54,10.54,0,0,0,2.86,0,2.45,2.45,0,0,0,1.42,0,2.45,2.45,0,0,0-1.42,0h-1.63c-.31,0-1.84,0-.51-.64h6.62a5.66,5.66,0,0,0,2.39,0h-.91a5.68,5.68,0,0,0,3,0h0a13.41,13.41,0,0,1,4.38,0h2.3a.56.56,0,0,0-.61,0,8.29,8.29,0,0,1-2.81,0H933.5a13.23,13.23,0,0,0,3.77,0h9.58s.3-.85-2.35-.85h-3.15a4.58,4.58,0,0,0,1.73,0,3,3,0,0,0-1.84,0h4a5.65,5.65,0,0,1,2.09,0h2.8l-.41-.64h0c1.33,0,1.63,0,0-.64h-.15a5.43,5.43,0,0,0,2.34,0,4.59,4.59,0,0,0-2.44,0h7.28a7.27,7.27,0,0,0,3,0c.81,0,.61-1-.51-1h-7.54l-8.41-30.87h-1.53a10.67,10.67,0,0,1-4.43-.54h0a4.91,4.91,0,0,0-2.09,0h0a5.88,5.88,0,0,1-3.21-.74l.46-1.17h.87l4.68.85a6.66,6.66,0,0,0,2.09,0h3.16l1.17.53h4.49a2.66,2.66,0,0,0-1.53,0h3.87c-1.73,0-3.82-.64-5.81-.74l-9.37-1-6.06-.64c2-1.28,3.87-2.88,3-5.54a7.74,7.74,0,0,1-2,0,6.54,6.54,0,0,0,2.3-3l1.88-1.38a5.51,5.51,0,0,0,4.54-1.28h-.92l1.37-1-1.37.85.25-.63h0a121,121,0,0,1,12-6.71h0c1.37.47,2.7-1.2,3.15-3.94h0l4-4.69c.92,0,1.12-2,1.17-3.72h0l.71-2.56c3,0,5.35-3.4,9.12-1.38-.86-2,.26-1.81,1.43-3.19.31,3.4,1.27.74,2.65,0-1.33,3.19,1.43,1.49,1.17,2.55s5.5,3.83,5.1,3.3H980l-.81,1.07c.71,0,.81,0,1-1.07h.61c2.7,0,2.75-2.55,6-1.92.61-2.34-.66-3.08-.46-5.11C984.63,205.57,983,204.38,981.8,201.84ZM362.64,81.11h28.12A206.15,206.15,0,0,1,362.64,81.11ZM65,244.53a8.71,8.71,0,0,1,0-1.91h2.6a3.3,3.3,0,0,0,1.07,2.23A14.25,14.25,0,0,1,65,244.53Zm0,50.68h0c-1-5.75,1.94-5.75,3.16-4.69,2.62,2.88,5.74,2.88,8.36,0h1a4.2,4.2,0,0,1,1.58,0c.4,2.35,2.85,2.66,3.61,4.69l-.71,1H64.7Zm22.32,52.38-3.36,2.13-.46-.86c-1.3,1.65-2.83,2.33-4.33,1.92h-.77c-1.84-2.08-4.06-2.08-5.91,0-.86.85-2.9.85-2.24-3.3H87.52ZM398.05,87.18h-5.41l-7.43-.74H398.3Zm6.11-5.53h2.95a3.39,3.39,0,0,0-1.37,1.27c1.07,1.07,1.48,1.39,1.83.75h0a2,2,0,0,0,1,0h-1A10.55,10.55,0,0,0,408,82h1.48a3.82,3.82,0,0,1-1.38,2.23.9.9,0,0,0,1,0l.36.53H403.6c.12-1,.21-2,.25-3.08Zm4,5.64h-.46a3.37,3.37,0,0,0-3.87-.64h0a9.37,9.37,0,0,0,0-1.06h6.42a4.12,4.12,0,0,1,1.43,1.91Zm41.12-3.09h-4.08a8.34,8.34,0,0,1-3.72,0,5,5,0,0,0-1.88,0h-1a18.15,18.15,0,0,0-5.1,0H423.11a15.13,15.13,0,0,0,3.92,0H449.2a4,4,0,0,0,0,.85H436.51a8.54,8.54,0,0,0-4,0,14.33,14.33,0,0,1-4.23-.64H418.07c-.36-1.17-.61-1.17-1.23,0s-1.47,0-2.24,0a5,5,0,0,0-.76-1.7h35.71ZM480.83,88H451.39V87.5h21a7,7,0,0,0,2.14,0h-.36a95.31,95.31,0,0,1-16.61-1h0a10.49,10.49,0,0,0-4.53,0h-2V86a14.77,14.77,0,0,1,5.1.53h24.09c-.25,0,0,.86,3,.64h.86a3.42,3.42,0,0,0,0,.64h0a7.65,7.65,0,0,0-2.34,0h2.45a2.29,2.29,0,0,0,0,.64h-.36a7.27,7.27,0,0,0-3,0h3.93A6.6,6.6,0,0,1,480.83,88Zm15,0h-.4a.56.56,0,0,0-.87,0h-8.61v-.74l10.19.53h-.51Zm203.79,7h-5.09a6.37,6.37,0,0,0,0-1.38,3.59,3.59,0,0,0,3.16-.64c.71-.43,2.24-.43,1.73,1.91ZM872,122.74h-1.89a8.29,8.29,0,0,0-4,0,11.94,11.94,0,0,1-4.13,0h10Zm4.43-2.45h0Zm27,29.49c-.28,0-.51-.48-.51-1.06s.23-1.07.51-1.07h0a1.75,1.75,0,0,1,.24,1.42c-.08.36-.25.59-.44.6Zm1-25.66h-12l-1.89-1.06h15.29a4.83,4.83,0,0,0,2.14,0h-.41c-5.61,0-11.21-.53-16.61-1h0a8,8,0,0,0-3.16,0,25.35,25.35,0,0,0-4.48-2.13,18.2,18.2,0,0,1,5.8,0H903.8a18.08,18.08,0,0,0,5.09,0H910a7.53,7.53,0,0,1,2.7,3.2,24.38,24.38,0,0,1-8.4.85Zm27-1.81c1.28,0,1.07-1.17,1.07-2.12h0c.26.85.77,1.49,1,2.34Z" transform="translate(-11 -71)"/></svg>