<svg xmlns="http://www.w3.org/2000/svg" xmlns:xlink="http://www.w3.org/1999/xlink" viewBox="0 0 418.81 264.89"><defs><style>.cls-1{fill:none;}.cls-2{clip-path:url(#clip-path);}.cls-3{fill:#fff;}</style><clipPath id="clip-path" transform="translate(-1.06 -0.07)"><rect class="cls-1" width="420.21" height="265.63"/></clipPath></defs><g id="Layer_2" data-name="Layer 2"><g id="Layer_1-2" data-name="Layer 1"><g class="cls-2"><path class="cls-3" d="M335.39,211.1l-2.07-.18.09-.09a6.81,6.81,0,0,0,.09,1.35,4.26,4.26,0,0,0,.63,1.08l1-.81Zm56.29-84.31a7.36,7.36,0,0,0-2.43.09c-.36.09-.54.9-.81,1.35a3.5,3.5,0,0,0,1.35.18,18,18,0,0,0,1.89-.9Zm-8.56-58.13-2.7-.9v2.43C382.58,70.19,382.94,70,383.12,68.66ZM38.26,219.83l.09.63,4-.36-.09-.81Zm328.2-14,1.26.45c.27-.81.63-1.62.81-2.43-.36-.18-.72-.27-1.08-.45C367.09,204.26,366.82,205.07,366.46,205.88ZM356.37,104.65c.9,1.44.63,4,3.52,2.34C358.8,106,358.62,104.2,356.37,104.65Zm14.95-36.08c.54,2.79.72,2.88,2.71,2.16l-.45-2.34Zm-30.89,121.3c1.71,1.43,3.42,2.15,5.4,0Zm24.05,15.65.81-.18,1.17-3.51-.45-.45c-.63.63-1.62,1.08-1.89,1.89S364.3,204.8,364.48,205.52Zm12.34-99c-.36.81-1.08,2-.9,2.07a38.25,38.25,0,0,0,3.51,2.25l-.45-2.07,1.35-1.26-2.79-3.24c.36,1.44.54,2.34.9,3.69Zm-73.68-5,3.79-1.08.18.45,1.44-2.52-2.8.9c-1.53-3.06-2.52-3.33-4-1.26C302.24,99.16,302.6,100.15,303.14,101.59Zm34.59-46.52.27.9,8.56-.81A16.09,16.09,0,0,0,347.82,54c.18-.36.36-.72.54-1.17l-4.24-1.08-.18.63,2.16,1.17c-1.53.09-2.43.18-3.33.27a15.26,15.26,0,0,0-2.79.54C339.08,54.62,338.45,54.8,337.73,55.07Zm33.5,1.8c.45-1.8,1-2.79,2.62-1.62a1.15,1.15,0,0,0,1-.36c.81-1.08,1.62-2.25,2.7-3.78h-2.61l.27.9a5.6,5.6,0,0,1-6.31.63l-.09.54Zm-37.91,154-3.43,1.44,2.61,1.26L331.42,216l-4.77,1.17c1.8.9,3.06,1.62,4.5,2.25a1.38,1.38,0,0,0,1.17-.18c1.09-1,2.44-1.8,2.26-3.6a12,12,0,0,1,.45-3.06l.36-1.44c-.36-.72-.72-1.53-1.08-2.25Zm32.51-18.09c1.26,1.35,3.78,1.8,2.79,4.77,2.43-2.61,3-2.34,4.69,1-.73.45-1.81.72-2,1.35s.45,1.44,1,2.07a23.72,23.72,0,0,0,2.26,2c-.63.81-1.26,1.71-1.81,2.43-5.4.63-10.89,1.35-16.48,2-1.62.18-1.8.9-1.35,2.34h2c-1.62,1.89-.72,3.42.09,4.95s-.54,2-1.35,2.79a4.73,4.73,0,0,0-1.35,2.34l-2.7.63,3.33-6.75-.54-.36-7.74,5.49c.09,1.17.18,2.79.36,4.5a4.72,4.72,0,0,0,.9,1.62,8.34,8.34,0,0,0,1.26-1.26,4.12,4.12,0,0,1,1.44-1.35c-.09,1.08-.18,2.16-.27,3.51,2.88-.45,4.23,1.89,5.85,3.78a2.56,2.56,0,0,1,.36,1.08c-1.08.36-2.25.45-2.52.9-.54,1.08.27,1.8,1.35,2.34a20.75,20.75,0,0,1,3.24,2.25c-2.25,1.17-4.5,1.08-5.49-.54a28.64,28.64,0,0,0-1.44-2.88c-.9-1.35-2.07-1.53-3.15-.09s-1.89,2.79-3.16,4.5l1.63.54c-.72.36-.91.45-1.09.45-3.33.09-6.66.09-10,.36-4,.36-7.84,1.17-11.8,1.62-7.84,1-15.67,1.89-23.51,2.79-4.77.53-9.64,1.34-14.41,1.79-4,.36-8.11.18-12.07.45-5.49.36-10.9.81-16.39,1.26-8.2.72-16.48,1.53-24.68,2.25-7.56.72-15.13,1.62-22.61,2.25-3.51.27-7.11.18-10.62.36-1,0-2.08.27-3.07.27-2.52-.09-5-.18-7.74-.36l.81-2.43-.45-.27c-.36.54-1.08,1-1.08,1.53-.09,1.71-1,1.89-2.43,2-9.73.36-19.37.54-29,1.44-5.4.45-10.71,2-16,3.24s-10.72,2.7-16.12,4.05c-3.78,1-7.57,2.07-11.35,3-3.6.9-5.31-.9-4.59-4.59.09-.63-.63-1.44-1-2.25.9-.45,1.08-1.44.09-2.7a8.46,8.46,0,0,1-1.35-2.88c-.81-.36-2.62,1-2.89-1.26,0-.27.63-.63.82-.81.36-1.44.72-3,1.17-4.41.81-2.42.63-2.78-1.81-4.13a18.43,18.43,0,0,1,.45-2.16,10.79,10.79,0,0,1,1.09-1.89c-1.72-.63-1.72-.63-2.62,2l-.72-3.78a28.51,28.51,0,0,0,2.89-.36,1.06,1.06,0,0,0,.54-.9c0-.18-.45-.45-.72-.54-3.52-.54-7-1.17-10.54-1.62-4.24-.45-8.38-.81-12.61-1-2.43-.09-4.78.45-7.21.45-5.67.09-11.35.09-17-.09a22.09,22.09,0,0,1-5.85-1.35c-1.09-.36-1.9-.9-2.17.63-3.33-1-2-4.05-2.79-6.21a9.49,9.49,0,0,1-1.71-.45,15.65,15.65,0,0,1-1.62-1,4.76,4.76,0,0,0-1,1.89c-.36,2.25,1.08,3.69,3.6,3.78a8.94,8.94,0,0,1-2.43,1.8,3.85,3.85,0,0,1-3-.45c-1.17-.72-2-2.07-3.7-1.53-.18,0-.54-.27-.54-.45a1.24,1.24,0,0,1,.45-.81l2.08-.54a7.88,7.88,0,0,1-.18-1.44c.18-2.34.18-2.34-2.26-1.89a7.73,7.73,0,0,1,.27-1.53,1.8,1.8,0,0,0-.45-2.61,2.7,2.7,0,0,0-.9-.36c-1.8-.27-3.51-.45-4.86-2.52-.54,3.06-2.25,3-4.14,2.79-1.62-.18-3.25-.27-4.87-.45-1.17-.09-2-.45-2.07-1.8-.09-.81.27-2.16-1.35-1.89a13.43,13.43,0,0,1-.18-1.89,28,28,0,0,1,.63-4,8.54,8.54,0,0,1,.81-1.89l-2.07-.36.54-.54-1.35-3.24c-.18-.27-.54-.54-.54-.81-.36-2.52-.63-4.95-.9-7.65,1.62,1,2.52.72,2.7-1a2.49,2.49,0,0,1,.09-.81,22,22,0,0,1,.9-2.16c-.9-.36-1.8-1-2.61-.9-1.35.09-1.26-.53-1.26-1.43a9.89,9.89,0,0,0-.27-3.24c-1.44-4.68.54-7.2,5.58-6.93a32.89,32.89,0,0,0,13.51-2c-.54-2.61-1.17-4.95-1.44-7.29-.36-2.7,1-4.68,3.6-5.85l-.27-.63-3.42.45c-1.44-1.44-1.26-3,.9-4.32,5.23-3.42,11.26-5.13,17.2-6.57,6.85-1.71,13.87-2.61,20.63-3.87-1.17-.36-1.8-2.61-3.87-1.71-4.06,1.8-8.2,1.08-12.43.63a53.26,53.26,0,0,0-8.47.18c-5.67.54-11.26-.27-16.93-.63-4.59-.27-9.28-1.62-14,0a11.43,11.43,0,0,1-3.06.45c-1.62.18-2.71-.27-2.62-2.16a1.36,1.36,0,0,0-.27-1.17c-2.16-2.43-.9-5.58-1.89-8.28-.54-1.52.27-3.59.45-5.48.27.63.63,1.26,1.08,2.25l1.54-3.42-2.71,1.17c0-.09-.09-.27-.09-.36-2.52.27-2.88-2.07-4.05-3.33a1.83,1.83,0,0,1-.18-1.8c1.89-2.25,1.26-4.68.72-7.11a9.67,9.67,0,0,0-2.34-5c-1.26-1.44-.18-4.14,1.89-5A23.24,23.24,0,0,1,5.83,107a30,30,0,0,0,.63-4.86,13.86,13.86,0,0,1,1.26-6.3c.36-.72-.54-2-.81-3a5.1,5.1,0,0,1-.27-1.62c0-.45.45-.81.54-1.26.27-1.71-1-5.85-2.52-7.65,3.15-.72,6.13-1.25,9-2.06a27.6,27.6,0,0,0,4-1.8A2.07,2.07,0,0,1,19,78.29c1.08.18,2.16.36,3.24.45a11.61,11.61,0,0,0,3.88-.9,4.88,4.88,0,0,0,5.85.45c-.9-.27-1.62-.45-2.25-.63a4.26,4.26,0,0,1-2.88-2.52c-1.71-3.24-1.35-6.66-1.71-10a16.5,16.5,0,0,1-.18-4.23c.18-1.17,1.26-2.16,1.53-3.24.54-1.8,1.26-3.69,1.08-5.49-.27-3.15-.63-6.12.45-9.27.36-1.17-.09-2.7-.18-4.41a38.77,38.77,0,0,1,5.49-.9c4.42-.09,8.74.27,13.15.09,4-.18,8.11-.9,12.25-1.35,3.33-.36,6.67-.81,9.91-1.17,1.89-.18,2.61-1,2.43-2.79l-2.16,1.53c-1.71-1.08-2.07-2.43-.72-4.05L66.63,29c1-1,2.43-1.79,1.26-3.68l-.72,1.26c-.81-.81-1.62-1.53-2.43-2.34a1,1,0,0,1-.27-.72c0-.72,2.61-2.79,3.42-3a6.71,6.71,0,0,0,2.25-1.17c.18-.18-.18-1.44-.36-1.53a7.67,7.67,0,0,0-2.88.27c-.63.18-1.08.9-1.44,1.26-1.35-4.5-2.71-8.73-3.88-13a2.81,2.81,0,0,1,1.17-2.25,6.12,6.12,0,0,1,3-1.17C74.64,2,83.56,1,92.57.27a78.22,78.22,0,0,1,11.25,0C114.54.9,125.26,1.71,136,2.34c13.06.81,26.12,1.71,39.18,2.43,8,.45,16,.72,24,.72s16.12-.72,24.13-.9c6.22-.18,12.43-.27,18.65-.09,7.29.18,14.59.72,21.88,1.08,11.17.63,22.34,1.26,33.6,1.8,7.56.36,15,.54,22.61.9s14.86,1,22.33,1.35c3.6.18,7.21,0,10.9-.09A36.89,36.89,0,0,1,366.1,11.7a7.11,7.11,0,0,1,3.24,2.61,20.57,20.57,0,0,0,0,3.33c.54,2.16.63,2.07-.63,3.51.45.18.81.27,1.08.36a13.21,13.21,0,0,0,1.53.36l-2.52.72.63,1.17,2.25-.45c.09.9.54,1.89.18,2.52a9.07,9.07,0,0,1-2.52,2c-.18.09-.45-.09-.9-.09.27,1.53.72,2.43,2.34,2.43,3.34.09,6.67.36,10,.63a44.92,44.92,0,0,1,4.77,1c-.36.81-.63,1.44-.9,2.07-.27.81-.54,1.62-.81,2.52-.36,1.17-.81,2.34-1.17,3.51l-.63-.09.54,1.8-1.71,1c.27.45.45.9.9,1.71l-2.88-.81.54,4-1.89-2.16-1.8,1.44c1.53,0,1.08,4.14,3.51,1a5,5,0,0,0-.18,2c.54,2.88-.72,4.68-3.06,6.21-1.71,1.08-1.08,4.23.72,5a6.2,6.2,0,0,1,1.17,1c1.44,1.53,2.07,1.53,3.33-.09,2.07.45,3.51,1.53,3.33,4.05L382.4,66c-.27-.63-.45-1.26-.72-1.89l-4.41,1.26c1.35,1.71.27,2.43-.45,2.79.54.9,1.26,1.8,1.89,2.7,1.35,1.44,3.15,1,4.86,1,2.25-.09,4.24.09,5.5,2.43.63,1.26,2,1.17,3,.27,1.26-1.17,2.52-.36,3.24.27.54.45.18,1.89.27,2.79l-.63.18,1.17,1c-3.24-.81-3.24,2-4.14,4l3,2.07-3.69,1.8L389.34,84c-.81.72-2.25,1.53-2.16,2.07a17.49,17.49,0,0,0,2,3.87l.72-.09-3.34,2.52,4.06,2.34c.18-.81.27-1.53.54-2.88,1.35,1.08,2.52,1.89,3.6,2.79.09.09-.54,1-.9,1.62.18.18.45.54,1,1.17l-1.71.09-.81.54,1.89,1.08c-.9,1.08-1.17,1.89.45,2.79.72.45.54,2.16.9,3.87l-2.43-1.89c-.09,1-.18,1.89-.36,2.88a1.7,1.7,0,0,1-.9,1.17c-2.16.63-1.8,2.34-1.8,3.78l-3.06,1.8c2.79,1.44,3.06,3,1.08,5.13a3.19,3.19,0,0,0-.9,3.06,16.51,16.51,0,0,1-.91,5.94,1.24,1.24,0,0,1-1.62.81.83.83,0,0,1-.54-.36,6.29,6.29,0,0,0-2.16-.81,3.7,3.7,0,0,0,3.06,4.32c6.4.81,12.7,1.44,19.1,2.25,4.95.63,10,1.44,14.59,2.06.09,1.53.18,2.43.27,3.51-1.62,1.53-1.17,3.87-1.44,6-.36,2.52,1.35,5.31-.9,7.74-.18.18.54,1.08.45,1.62-.63,2.61.27,4.95.9,7.29.18,1,.27,2,.36,2.88-1.8,1.26.72,2.52.9,4a9.08,9.08,0,0,0,.63,1.35,7.79,7.79,0,0,0-1.53.63c-.45.36-1,.72-1.44,1.08a15.64,15.64,0,0,0,1.17,1.35,4.13,4.13,0,0,0,1.44.63c-4.68,3.6-9.73,4.86-15.22,5.31-4.05.36-8.11,1-12.16,1.53-1.08.18-1.89.18-1.89,2s-.9,3.51-1.44,5.22l-.63-.09,1.53,3.32c-6.13,2.25-12.43.54-18.56,0-1.35-.09-2.7-.9-3.33,1.08-.09.27-1.08.36-1.62.54.45-.9.9-1.8-.45-2.25a1.56,1.56,0,0,0-1.26.27,1.28,1.28,0,0,0-.09,1.26A3.56,3.56,0,0,0,365.83,192.83Z" transform="translate(-1.06 -0.07)"/></g></g></g></svg>